<?xml version="1.0" encoding="utf-8"?>
<!-- Generator: Adobe Illustrator 18.1.1, SVG Export Plug-In . SVG Version: 6.00 Build 0)  -->
<svg version="1.1" id="Layer_1" xmlns="http://www.w3.org/2000/svg" xmlns:xlink="http://www.w3.org/1999/xlink" x="0px" y="0px"
	 viewBox="0 0 443.3 231.6" enable-background="new 0 0 443.3 231.6" xml:space="preserve">
<g>
	<path d="M0,0v231.6h231.6V0H0z M96.8,108.1c0,18.3-14.8,33.2-33,33.2H47.6v35.2c0,3.6-2.9,6.5-6.5,6.5h-7.7c-3.5,0-6.3-2.9-6.3-6.5
		V54.9c0-3.5,2.8-6.3,6.3-6.3h30.4c18.2,0,33,14.8,33,33V108.1z M204.6,176.5c0,3.7-2.9,6.5-6.5,6.5h-78.4c-3.6,0-6.5-2.9-6.5-6.5
		V54.9c0-3.5,2.9-6.3,6.5-6.3H141c2.4,0,5.5,1.8,6,4.2l10.7,43.8h2.4l10.7-43.8c0.4-2.4,3.5-4.2,5.9-4.2h21.3c3.6,0,6.5,2.8,6.5,6.3
		V176.5z"/>
</g>
<g>
	<g>
		<polygon points="338.8,124.3 320.8,124.3 320.8,39.9 434.2,39.9 434.2,82.7 416.3,82.7 416.3,57.9 338.8,57.9 		"/>
	</g>
	<g>
		<path d="M375.7,202.9c-10.6,0-21-2.3-30.2-6.8c-14.5-7.1-25.6-19.4-32.1-35.5l-3-7.5l32.7-17.4l8.5,15.8l-18,9.5
			c12.3,21.4,35,26,51.8,23c19.3-3.4,39.1-17.6,39.9-41.5c0.5-14.2-2.5-24.7-8.8-31.1c-8.2-8.4-21.3-9.4-31.8-9.3l-0.1,0H360v-18
			h24.5c13-0.1,31.7,1.3,44.8,14.7c9.8,10.1,14.5,24.9,13.9,44.2c-0.5,15.2-6.5,28.9-17.4,39.7c-9.7,9.6-23,16.4-37.3,18.9
			C384.2,202.5,379.9,202.9,375.7,202.9z"/>
	</g>
	<path d="M385.5,124.5l-0.2,8.6l8.2-3.3c-0.1,0,1.7,1.5,3.2,5.1c1.6,3.9,0.9,6.1,0.9,6.1l-8.8,3.1l5.8,7.2c0,0-0.8,2.2-4,4.6
		c-3.2,2.4-5.5,2.4-5.5,2.4l-5.2-7.4l-5.2,7.4c0,0-2.1,0-5.4-2.4c-3.2-2.4-4.1-4.6-4.1-4.6l5.7-7.2L362,141c0,0-0.6-2.2,0.8-6.1
		c1.6-3.6,3.2-5.1,3.2-5.1l8.2,3.4l-0.4-8.7c0.6-0.2,2.6-1,5.9-1C383.2,123.4,385.1,124.3,385.5,124.5z"/>
</g>
</svg>
