<?xml version="1.0" encoding="utf-8"?>
<!-- Generator: Adobe Illustrator 18.1.1, SVG Export Plug-In . SVG Version: 6.00 Build 0)  -->
<svg version="1.1" id="Layer_1" xmlns="http://www.w3.org/2000/svg" xmlns:xlink="http://www.w3.org/1999/xlink" x="0px" y="0px"
	 viewBox="0 0 340.2 340.2" enable-background="new 0 0 340.2 340.2" xml:space="preserve">
<g>
	<path fill="#00FF00" d="M0,0v340.2h340.2V0H0z M142.2,158.8c0,26.9-21.7,48.7-48.5,48.7H69.8v51.7c0,5.3-4.3,9.6-9.6,9.6H49
		c-5.1,0-9.3-4.3-9.3-9.6V80.7c0-5.1,4.2-9.3,9.3-9.3h44.7c26.7,0,48.5,21.8,48.5,48.5V158.8z M300.5,259.2c0,5.4-4.2,9.6-9.6,9.6
		H175.7c-5.4,0-9.6-4.2-9.6-9.6V80.7c0-5.1,4.3-9.3,9.6-9.3H207c3.6,0,8.1,2.7,8.7,6.2l15.8,64.3h3.6l15.8-64.4
		c0.6-3.5,5.1-6.1,8.7-6.1h31.3c5.3,0,9.6,4.2,9.6,9.3V259.2z"/>
</g>
</svg>
